<svg id="Layer_1" data-name="Layer 1" xmlns="http://www.w3.org/2000/svg" viewBox="0 0 1076.85 1123.55"><defs><style>.cls-1,.cls-4{fill:#232323;}.cls-2{fill:none;stroke:#d5c3b5;stroke-linecap:round;stroke-linejoin:round;stroke-width:7.26px;}.cls-3{fill:#ffeadc;}.cls-4{font-size:116.38px;font-family:Futura-Medium, Futura;font-weight:500;}</style></defs><title>logo-web-handy</title><path class="cls-1" d="M180.32,398.56c0-4.2-2.24-6.15-6.15-6.15H163V362.2h33.84c13.15,0,19,5.87,19,18.74V431c0,7-.56,12-.56,12h.56c6.72-13.7,24.34-28.25,49-28.25,31.89,0,49.79,16.51,49.79,54.27v55.66c0,3.92,2.24,6.16,6.16,6.16h11.18v29.92H298.08c-13.15,0-18.74-5.59-18.74-19V476.32c0-17.34-4.76-29.09-22.66-29.09-18.74,0-33.28,12.31-38.6,29.65a64.19,64.19,0,0,0-2.24,18.46v65.45H180.32Z"/><path class="cls-1" d="M477.37,530.87c-3.92,0-6.16-2.24-6.16-6.16V471.57c0-31.89-14-56.79-61.53-56.79-14.83,0-52.31,2.8-52.31,29.37v15.11h33v-7.55c0-7.84,12.58-9.51,19-9.51,18.18,0,26.29,7.55,26.29,28v1.12h-4.47c-23.22,0-84.76,3.63-84.76,48.39,0,28.53,23.22,44.47,48.67,44.47,32.17,0,43.08-25.17,43.08-25.17h.56a61.38,61.38,0,0,0-.28,6.15c0,8.39,5,15.66,18.18,15.66h31.89V530.87Z"/><path class="cls-1" d="M436.24,495.63V499c0,17.34-13.42,37.49-32.43,37.49-14.55,0-21.54-9-21.54-18.46,0-19.87,29.36-22.37,47.84-22.37Z"/><path class="cls-2" d="M382.27,518c0,9.5,7,18.46,21.54,18.46,19,0,32.43-20.15,32.43-37.49"/><path class="cls-1" d="M517.08,454.5c0-4.19-2.24-6.15-6.15-6.15H499.74V418.14h32.72c12.59,0,18.74,5.87,18.74,15.94v4.2a39.27,39.27,0,0,1-.56,6.15h.56c6.16-12,21.54-29.65,50.35-29.65,31.61,0,49.79,16.51,49.79,54.27v55.66c0,3.92,2.24,6.16,6.16,6.16h11.18v29.92H634.84c-13.43,0-19-5.59-19-19V476.32c0-17.34-4.48-29.09-22.38-29.09-19,0-33.29,12-38.32,29.09a60.12,60.12,0,0,0-2.8,19v65.45H517.08Z"/><path class="cls-1" d="M747.55,414.78c31.05,0,41.12,17.35,41.12,17.35h.56s-.28-3.64-.28-8.4V398.56c0-4.2-2.24-6.15-6.15-6.15H771.61V362.2h33.84c13.15,0,19,5.87,19,19V524.71c0,3.92,2.24,6.16,6.16,6.16h10.91v29.92H808.81c-12.87,0-17.62-6.15-17.62-14.54v-5.32h-.56s-11.75,23.22-44.48,23.22c-38.6,0-63.49-30.49-63.49-74.68C682.66,444.15,709.79,414.78,747.55,414.78Zm42.24,74.41c0-22.1-11.47-43.92-35.24-43.92-19.58,0-35.81,16-35.81,44.2,0,27.13,14.27,44.75,35.25,44.75C772.45,534.22,789.79,520.8,789.79,489.19Z"/><circle class="cls-3" cx="884.17" cy="388.56" r="17.74"/><path class="cls-1" d="M894.12,541.77c0,13.43-5.59,19-18.74,19H841.54V530.87h11.19a6.16,6.16,0,0,0,6.15-6.16V436.88a18.74,18.74,0,0,1,18.74-18.74h22.66a11.19,11.19,0,0,1,11.19,11.19v7.83a11.19,11.19,0,0,1-11.19,11.19h0c-3.92,0-6.16,2-6.16,6.15Z"/><text class="cls-4" transform="translate(409.26 727.77)">get crafty</text></svg>